HIERARCHY
ROOT joint_Root
{
	OFFSET 0.0 0.0 0.0
	CHANNELS 6 Xposition Yposition Zposition Zrotation Xrotation Yrotation 
	JOINT Hips
	{
		OFFSET -0.726466 93.3139 -2.00062
		CHANNELS 6 Xposition Yposition Zposition Zrotation Xrotation Yrotation 
		JOINT Spine
		{
			OFFSET 15.7357 0.0 0.0
			CHANNELS 6 Xposition Yposition Zposition Zrotation Xrotation Yrotation 
			JOINT Chest
			{
				OFFSET 8.98455 -0.406207 0.0
				CHANNELS 6 Xposition Yposition Zposition Zrotation Xrotation Yrotation 
				JOINT Neck
				{
					OFFSET 16.3773 0.0 0.0
					CHANNELS 6 Xposition Yposition Zposition Zrotation Xrotation Yrotation 
					JOINT Head
					{
						OFFSET 6.45672 0.0 0.0
						CHANNELS 6 Xposition Yposition Zposition Zrotation Xrotation Yrotation 
						End Site
						{
							OFFSET 0.0 0.0 0.0
						}
					}
				}
				JOINT Shoulder_L
				{
					OFFSET 12.9942 -0.242716 4.98039
					CHANNELS 6 Xposition Yposition Zposition Zrotation Xrotation Yrotation 
					JOINT UpperArm_L
					{
						OFFSET 5.34809 0.0 0.0
						CHANNELS 6 Xposition Yposition Zposition Zrotation Xrotation Yrotation 
						JOINT LowerArm_L
						{
							OFFSET 24.3286 1.87007e-05 0.0
							CHANNELS 6 Xposition Yposition Zposition Zrotation Xrotation Yrotation 
							JOINT Hand_L
							{
								OFFSET 22.2916 0.0 0.0
								CHANNELS 6 Xposition Yposition Zposition Zrotation Xrotation Yrotation 
								End Site
								{
									OFFSET 0.0 0.0 0.0
								}
							}
						}
					}
				}
				JOINT Shoulder_R
				{
					OFFSET 12.9945 -0.242716 -4.98039
					CHANNELS 6 Xposition Yposition Zposition Zrotation Xrotation Yrotation 
					JOINT UpperArm_R
					{
						OFFSET -5.34813 0.0 0.0
						CHANNELS 6 Xposition Yposition Zposition Zrotation Xrotation Yrotation 
						JOINT LowerArm_R
						{
							OFFSET -24.3289 0.000322201 0.0
							CHANNELS 6 Xposition Yposition Zposition Zrotation Xrotation Yrotation 
							JOINT Hand_R
							{
								OFFSET -22.2915 -0.000108084 0.0
								CHANNELS 6 Xposition Yposition Zposition Zrotation Xrotation Yrotation 
								End Site
								{
									OFFSET 0.0 0.0 0.0
								}
							}
						}
					}
				}
			}
		}
		JOINT UpperLeg_L
		{
			OFFSET -2.19248 -6.46944 0.0
			CHANNELS 6 Xposition Yposition Zposition Zrotation Xrotation Yrotation 
			JOINT LowerLeg_L
			{
				OFFSET 39.0811 0.0 -1.23785e-05
				CHANNELS 6 Xposition Yposition Zposition Zrotation Xrotation Yrotation 
				JOINT Foot_L
				{
					OFFSET 40.9854 0.0 -1.26872e-05
					CHANNELS 6 Xposition Yposition Zposition Zrotation Xrotation Yrotation 
					JOINT Toes_L
					{
						OFFSET 11.7543 0.0 0.0
						CHANNELS 6 Xposition Yposition Zposition Zrotation Xrotation Yrotation 
						End Site
						{
							OFFSET 0.0 0.0 0.0
						}
					}
				}
			}
		}
		JOINT UpperLeg_R
		{
			OFFSET -2.19251 6.46944 0.0
			CHANNELS 6 Xposition Yposition Zposition Zrotation Xrotation Yrotation 
			JOINT LowerLeg_R
			{
				OFFSET -39.0811 -0.00228153 -0.0401928
				CHANNELS 6 Xposition Yposition Zposition Zrotation Xrotation Yrotation 
				JOINT Foot_R
				{
					OFFSET -40.9854 0.0 0.0
					CHANNELS 6 Xposition Yposition Zposition Zrotation Xrotation Yrotation 
					JOINT Toes_R
					{
						OFFSET -11.7543 0.0 0.0
						CHANNELS 6 Xposition Yposition Zposition Zrotation Xrotation Yrotation 
						End Site
						{
							OFFSET 0.0 0.0 0.0
						}
					}
				}
			}
		}
	}
}
MOTION
Frames:	7
Frame Time:	0.0333333
0.000000 0.000000 0.000000 0.000000 0.000000 -0.000000 0.322003 92.222500 -4.216020 87.310600 -2.170940 4.439510 15.735700 0.000005 -0.000001 100.403000 85.055400 -103.429000 8.984550 -0.406207 -0.000000 2.020030 1.936100 -6.080740 16.377300 -0.000001 -0.000001 1.871400 -2.196820 0.640784 6.456720 -0.000001 -0.000000 -4.417460 -1.742440 -0.393064 12.994200 -0.242716 4.980390 -87.495400 -6.886070 -69.956200 5.348090 -0.000007 -0.000001 1.740190 75.891200 -51.001100 24.328600 0.000019 0.000005 12.869000 0.156474 -89.315200 22.291600 -0.000001 0.000005 36.478400 5.629660 -28.929500 12.994500 -0.242716 -4.980390 92.867600 -6.065480 -64.636100 -5.348130 -0.000001 -0.000004 -57.905800 -49.545200 -126.198000 -24.328900 0.000322 -0.000009 2.065080 2.132110 -44.120000 -22.291500 -0.000108 -0.000004 18.700300 5.452510 -4.729410 -2.192480 -6.469440 -0.000000 -168.915000 -16.806400 -3.885730 39.081100 -0.000007 -0.000012 -0.175022 0.423854 22.437400 40.985400 -0.000006 -0.000013 -5.520640 1.714160 -62.151800 11.754300 -0.000000 0.000003 -0.000151 -0.001463 -16.633100 -2.192510 6.469440 -0.000001 174.573000 18.135700 177.739000 -39.081100 -0.002282 -0.040193 0.033967 -0.085910 19.631700 -40.985400 0.000008 0.000006 -1.532580 2.220240 -60.542900 -11.754300 -0.000006 -0.000006 -0.006657 -0.076694 -19.695000
0.000000 0.000000 0.000000 0.000000 0.000000 -0.000000 0.380160 92.220500 -4.206250 87.375800 -2.125310 4.431990 15.735700 0.000005 -0.000001 100.528000 85.036800 -103.595000 8.984550 -0.406207 -0.000000 2.054510 1.965190 -6.164470 16.377300 -0.000001 -0.000001 1.887110 -2.161040 0.590599 6.456720 -0.000001 -0.000000 -4.448360 -1.701690 -0.413042 12.994200 -0.242716 4.980390 -87.491900 -6.864160 -69.872400 5.348090 -0.000007 -0.000001 1.529020 75.851600 -50.767300 24.328600 0.000019 0.000005 12.757400 0.152992 -89.324400 22.291600 -0.000001 0.000005 36.361400 5.627300 -29.104000 12.994500 -0.242716 -4.980390 92.843200 -6.025610 -64.680700 -5.348130 -0.000001 -0.000004 -58.799500 -50.014000 -125.693000 -24.328900 0.000322 -0.000009 1.867140 1.988300 -43.233400 -22.291500 -0.000108 -0.000004 18.801900 5.451530 -4.694370 -2.192480 -6.469440 -0.000000 -169.030000 -16.755000 -3.901850 39.081100 -0.000007 -0.000012 -0.176092 0.426374 22.440800 40.985400 -0.000006 -0.000013 -5.489270 1.675330 -62.171500 11.754300 -0.000000 0.000003 -0.000159 -0.001523 -16.635400 -2.192510 6.469440 -0.000001 174.459000 18.097400 177.771000 -39.081100 -0.002282 -0.040193 0.034012 -0.086257 19.585200 -40.985400 0.000008 0.000006 -1.609870 2.193700 -60.563400 -11.754300 -0.000006 -0.000006 -0.006719 -0.077230 -19.716900
0.000000 0.000000 0.000000 0.000000 0.000000 -0.000000 0.425984 92.226300 -4.201000 87.344500 -2.079370 4.353160 15.735700 0.000005 -0.000001 100.496000 85.043700 -103.570000 8.984550 -0.406207 -0.000000 2.041700 1.957920 -6.177650 16.377300 -0.000001 -0.000001 1.870770 -2.112670 0.565752 6.456720 -0.000001 -0.000000 -4.458040 -1.639910 -0.494411 12.994200 -0.242716 4.980390 -87.492500 -6.852390 -69.844600 5.348090 -0.000007 -0.000001 0.928300 75.890200 -50.185200 24.328600 0.000019 0.000005 12.647600 0.159047 -89.291300 22.291600 -0.000001 0.000005 36.440200 5.626510 -29.161800 12.994500 -0.242716 -4.980390 92.825700 -5.987460 -64.677600 -5.348130 -0.000001 -0.000004 -59.724700 -50.744200 -124.616000 -24.328900 0.000322 -0.000009 1.735710 1.923260 -42.098600 -22.291500 -0.000108 -0.000004 18.917600 5.449780 -4.631630 -2.192480 -6.469440 -0.000000 -169.064000 -16.725200 -4.006510 39.081100 -0.000007 -0.000012 -0.173801 0.420343 22.464100 40.985400 -0.000006 -0.000013 -5.450440 1.697960 -62.190000 11.754300 -0.000000 0.000003 -0.000147 -0.001432 -16.632000 -2.192510 6.469440 -0.000001 174.490000 18.143700 177.711000 -39.081100 -0.002282 -0.040193 0.033820 -0.085915 19.543600 -40.985400 0.000008 0.000006 -1.636100 2.156720 -60.483600 -11.754300 -0.000006 -0.000006 -0.006755 -0.077544 -19.729700
0.000000 0.000000 0.000000 0.000000 0.000000 -0.000000 0.475811 92.225400 -4.179290 87.377200 -2.077590 4.355600 15.735700 0.000005 -0.000001 100.235000 85.040500 -103.333000 8.984550 -0.406207 -0.000000 2.055520 1.915470 -6.224410 16.377300 -0.000001 -0.000001 1.887940 -2.026340 0.467149 6.456720 -0.000001 -0.000000 -4.395340 -1.546400 -0.551392 12.994200 -0.242716 4.980390 -87.491000 -6.842090 -69.805900 5.348090 -0.000007 -0.000001 0.498761 75.968500 -49.728100 24.328600 0.000019 0.000005 12.724300 0.161764 -89.283700 22.291600 -0.000001 0.000005 36.574600 5.627270 -29.106200 12.994500 -0.242716 -4.980390 92.809000 -5.953950 -64.685200 -5.348130 -0.000001 -0.000004 -60.456800 -51.657800 -122.909000 -24.328900 0.000322 -0.000009 1.619940 1.885480 -40.700500 -22.291500 -0.000108 -0.000004 18.990200 5.448060 -4.570230 -2.192480 -6.469440 -0.000000 -169.115000 -16.689600 -3.978300 39.081100 -0.000007 -0.000012 -0.177527 0.429542 22.455200 40.985400 -0.000006 -0.000013 -5.435860 1.690490 -62.218600 11.754300 -0.000000 0.000003 -0.000154 -0.001485 -16.634000 -2.192510 6.469440 -0.000001 174.408000 18.176400 177.738000 -39.081100 -0.002282 -0.040193 0.033693 -0.085660 19.522000 -40.985400 0.000008 0.000006 -1.689660 2.200940 -60.473000 -11.754300 -0.000006 -0.000006 -0.006697 -0.077039 -19.709000
0.000000 0.000000 0.000000 0.000000 0.000000 -0.000000 0.526172 92.223000 -4.147100 87.397400 -2.161850 4.339260 15.735700 0.000005 -0.000001 99.883000 85.040000 -102.997000 8.984550 -0.406207 -0.000000 2.065870 1.856200 -6.256400 16.377300 -0.000001 -0.000001 1.887660 -1.928940 0.352184 6.456720 -0.000001 -0.000000 -4.384000 -1.459560 -0.621272 12.994200 -0.242716 4.980390 -87.487600 -6.822960 -69.728800 5.348090 -0.000007 -0.000001 0.265065 75.983600 -49.461100 24.328600 0.000019 0.000005 12.760500 0.153781 -89.321100 22.291600 -0.000001 0.000005 36.633300 5.628250 -29.034200 12.994500 -0.242716 -4.980390 92.757600 -5.848950 -64.702100 -5.348130 -0.000001 -0.000004 -60.680300 -52.882400 -120.490000 -24.328900 0.000322 -0.000009 1.625680 2.004520 -39.074200 -22.291500 -0.000108 -0.000004 19.074300 5.439580 -4.271050 -2.192480 -6.469440 -0.000000 -169.172000 -16.730500 -3.977490 39.081100 -0.000007 -0.000012 -0.177310 0.428246 22.491700 40.985400 -0.000006 -0.000013 -5.413760 1.619270 -62.273300 11.754300 -0.000000 0.000003 -0.000158 -0.001520 -16.635200 -2.192510 6.469440 -0.000001 174.354000 18.179000 177.729000 -39.081100 -0.002282 -0.040193 0.034282 -0.087289 19.528800 -40.985400 0.000008 0.000006 -1.665340 2.247490 -60.477900 -11.754300 -0.000006 -0.000006 -0.006720 -0.077240 -19.717300
0.000000 0.000000 0.000000 0.000000 0.000000 -0.000000 0.587091 92.219400 -4.106570 87.449000 -2.294780 4.338120 15.735700 0.000005 -0.000001 99.374000 85.048000 -102.508000 8.984550 -0.406207 -0.000000 2.062690 1.767860 -6.295210 16.377300 -0.000001 -0.000001 1.842850 -1.812160 0.255509 6.456720 -0.000001 -0.000000 -4.275950 -1.341650 -0.743234 12.994200 -0.242716 4.980390 -87.487700 -6.817450 -69.715100 5.348090 -0.000007 -0.000001 -0.236408 76.042900 -48.914500 24.328600 0.000019 0.000005 12.606200 0.145765 -89.348300 22.291600 -0.000001 0.000005 36.539400 5.624960 -29.273200 12.994500 -0.242716 -4.980390 92.691500 -5.725780 -64.770400 -5.348130 -0.000001 -0.000004 -60.435200 -54.191800 -117.418000 -24.328900 0.000322 -0.000009 1.480500 1.952630 -37.203500 -22.291500 -0.000108 -0.000004 19.151900 5.438730 -4.241270 -2.192480 -6.469440 -0.000000 -169.257000 -16.785200 -3.926780 39.081100 -0.000007 -0.000012 -0.177623 0.428595 22.510900 40.985400 -0.000006 -0.000013 -5.395690 1.510700 -62.342100 11.754300 -0.000000 0.000003 -0.000185 -0.001730 -16.643000 -2.192510 6.469440 -0.000001 174.225000 18.289200 177.748000 -39.081100 -0.002282 -0.040193 0.034037 -0.086669 19.513900 -40.985400 0.000008 0.000006 -1.719130 2.521190 -60.471600 -11.754300 -0.000006 -0.000006 -0.006831 -0.078203 -19.756500
0.000000 0.000000 0.000000 0.000000 0.000000 -0.000000 0.626645 92.216400 -4.053590 87.436300 -2.510920 4.370160 15.735700 0.000005 -0.000001 98.711100 85.035600 -101.847000 8.984550 -0.406207 -0.000000 2.102200 1.657500 -6.296050 16.377300 -0.000001 -0.000001 1.909700 -1.667570 0.113916 6.456720 -0.000001 -0.000000 -4.407610 -1.154810 -0.805597 12.994200 -0.242716 4.980390 -87.472900 -6.816380 -69.601700 5.348090 -0.000007 -0.000001 -0.257302 76.058800 -48.871500 24.328600 0.000019 0.000005 12.648300 0.147839 -89.341300 22.291600 -0.000001 0.000005 36.582300 5.625630 -29.225300 12.994500 -0.242716 -4.980390 92.583100 -5.513510 -64.847600 -5.348130 -0.000001 -0.000004 -59.888000 -55.380700 -113.879000 -24.328900 0.000322 -0.000009 1.480760 2.093700 -35.301500 -22.291500 -0.000108 -0.000004 19.287400 5.433170 -4.048300 -2.192480 -6.469440 -0.000000 -169.239000 -16.849000 -3.808480 39.081100 -0.000007 -0.000012 -0.175813 0.423525 22.544500 40.985400 -0.000006 -0.000013 -5.405570 1.391310 -62.441300 11.754300 -0.000000 0.000003 -0.000129 -0.001280 -16.626400 -2.192510 6.469440 -0.000001 174.185000 18.270300 177.798000 -39.081100 -0.002282 -0.040193 0.033687 -0.085791 19.491200 -40.985400 0.000008 0.000006 -1.690960 2.727860 -60.458600 -11.754300 -0.000006 -0.000006 -0.006768 -0.077659 -19.734300
